<svg id="visual" viewBox="0 0 900 600" width="900" height="600" xmlns="http://www.w3.org/2000/svg" xmlns:xlink="http://www.w3.org/1999/xlink" version="1.1"><rect x="0" y="0" width="900" height="600" fill="#FF0066"></rect><g transform="translate(475.0042777890346 354.5481304753102)"><path d="M138 -245.3C186.6 -210.9 239.2 -189.7 240.3 -151C241.4 -112.3 191 -56.2 168.1 -13.3C145.1 29.7 149.6 59.3 147.5 96.3C145.4 133.2 136.7 177.5 111 189.6C85.3 201.8 42.7 181.9 -3.8 188.5C-50.3 195.2 -100.7 228.4 -153.2 231.7C-205.7 235 -260.5 208.5 -280.8 164.9C-301.2 121.3 -287.1 60.7 -255 18.5C-223 -23.7 -173 -47.3 -156.2 -97.1C-139.5 -146.9 -156 -222.9 -135.5 -273.5C-115 -324.2 -57.5 -349.6 -6.4 -338.5C44.7 -327.4 89.3 -279.7 138 -245.3" fill="#BB004B"></path></g></svg>